<svg width="19" height="19" viewBox="0 0 19 19" fill="none" xmlns="http://www.w3.org/2000/svg">
<path d="M2.375 4.75H3.95833H16.625" stroke="black" stroke-opacity="0.35" stroke-linecap="round" stroke-linejoin="round"/>
<path d="M15.0404 4.74999V15.8333C15.0404 16.2533 14.8735 16.656 14.5766 16.9529C14.2797 17.2498 13.877 17.4167 13.457 17.4167H5.54036C5.12044 17.4167 4.71771 17.2498 4.42078 16.9529C4.12385 16.656 3.95703 16.2533 3.95703 15.8333V4.74999M6.33203 4.74999V3.16666C6.33203 2.74674 6.49885 2.34401 6.79578 2.04708C7.09271 1.75014 7.49544 1.58333 7.91536 1.58333H11.082C11.502 1.58333 11.9047 1.75014 12.2016 2.04708C12.4985 2.34401 12.6654 2.74674 12.6654 3.16666V4.74999" stroke="black" stroke-opacity="0.35" stroke-linecap="round" stroke-linejoin="round"/>
</svg>
